%TF.GenerationSoftware,KiCad,Pcbnew,(5.1.8)-1*%
%TF.CreationDate,2021-01-17T19:24:47+01:00*%
%TF.ProjectId,Cirkel_Kalender,4369726b-656c-45f4-9b61-6c656e646572,rev?*%
%TF.SameCoordinates,Original*%
%TF.FileFunction,Soldermask,Bot*%
%TF.FilePolarity,Negative*%
%FSLAX46Y46*%
G04 Gerber Fmt 4.6, Leading zero omitted, Abs format (unit mm)*
G04 Created by KiCad (PCBNEW (5.1.8)-1) date 2021-01-17 19:24:47*
%MOMM*%
%LPD*%
G01*
G04 APERTURE LIST*
%ADD10O,1.700000X1.700000*%
%ADD11R,1.700000X1.700000*%
%ADD12C,5.000000*%
%ADD13C,2.900000*%
%ADD14C,1.440000*%
%ADD15C,1.500000*%
G04 APERTURE END LIST*
D10*
%TO.C,U1*%
X27305000Y-152908000D03*
X24765000Y-152908000D03*
D11*
X22225000Y-152908000D03*
%TD*%
D10*
%TO.C,U2*%
X35661600Y-152908000D03*
X33121600Y-152908000D03*
D11*
X30581600Y-152908000D03*
%TD*%
D12*
%TO.C,H3*%
X17780000Y-182880000D03*
D13*
X17780000Y-182880000D03*
%TD*%
D12*
%TO.C,H1*%
X17780000Y-153416000D03*
D13*
X17780000Y-153416000D03*
%TD*%
D12*
%TO.C,H4*%
X70104000Y-182880000D03*
D13*
X70104000Y-182880000D03*
%TD*%
D12*
%TO.C,H2*%
X70104000Y-153416000D03*
D13*
X70104000Y-153416000D03*
%TD*%
D11*
%TO.C,J5*%
X63500000Y-182880000D03*
D10*
X60960000Y-182880000D03*
X58420000Y-182880000D03*
X55880000Y-182880000D03*
X53340000Y-182880000D03*
%TD*%
D11*
%TO.C,J4*%
X70300000Y-167000000D03*
D10*
X70300000Y-169540000D03*
X70300000Y-172080000D03*
X70300000Y-174620000D03*
X70300000Y-177160000D03*
%TD*%
D11*
%TO.C,J2*%
X24053800Y-181965600D03*
D10*
X24053800Y-179425600D03*
%TD*%
D14*
%TO.C,RV1*%
X18288000Y-168148000D03*
X20828000Y-168148000D03*
X23368000Y-168148000D03*
%TD*%
%TO.C,RV2*%
X23368000Y-174244000D03*
X20828000Y-174244000D03*
X18288000Y-174244000D03*
%TD*%
D15*
%TO.C,Y1*%
X45028000Y-174404000D03*
X40148000Y-174404000D03*
%TD*%
D11*
%TO.C,J1*%
X30454600Y-172161200D03*
D10*
X30454600Y-174701200D03*
X30454600Y-177241200D03*
X30454600Y-179781200D03*
%TD*%
D11*
%TO.C,J3*%
X55219600Y-152908000D03*
D10*
X57759600Y-152908000D03*
X60299600Y-152908000D03*
%TD*%
M02*
