%TF.GenerationSoftware,KiCad,Pcbnew,(5.1.8)-1*%
%TF.CreationDate,2021-01-04T13:49:47+01:00*%
%TF.ProjectId,fablab,6661626c-6162-42e6-9b69-6361645f7063,rev?*%
%TF.SameCoordinates,Original*%
%TF.FileFunction,Soldermask,Bot*%
%TF.FilePolarity,Negative*%
%FSLAX46Y46*%
G04 Gerber Fmt 4.6, Leading zero omitted, Abs format (unit mm)*
G04 Created by KiCad (PCBNEW (5.1.8)-1) date 2021-01-04 13:49:47*
%MOMM*%
%LPD*%
G01*
G04 APERTURE LIST*
%ADD10C,5.000000*%
%ADD11C,2.900000*%
%ADD12R,1.700000X1.700000*%
%ADD13O,1.700000X1.700000*%
%ADD14O,1.000000X1.000000*%
%ADD15R,1.000000X1.000000*%
%ADD16C,1.440000*%
%ADD17C,1.500000*%
G04 APERTURE END LIST*
D10*
%TO.C,H3*%
X17780000Y-182880000D03*
D11*
X17780000Y-182880000D03*
%TD*%
D10*
%TO.C,H1*%
X17780000Y-153416000D03*
D11*
X17780000Y-153416000D03*
%TD*%
D10*
%TO.C,H4*%
X70104000Y-182880000D03*
D11*
X70104000Y-182880000D03*
%TD*%
D10*
%TO.C,H2*%
X70104000Y-153416000D03*
D11*
X70104000Y-153416000D03*
%TD*%
D12*
%TO.C,J5*%
X63500000Y-182880000D03*
D13*
X60960000Y-182880000D03*
X58420000Y-182880000D03*
X55880000Y-182880000D03*
X53340000Y-182880000D03*
%TD*%
D12*
%TO.C,J4*%
X70300000Y-167000000D03*
D13*
X70300000Y-169540000D03*
X70300000Y-172080000D03*
X70300000Y-174620000D03*
X70300000Y-177160000D03*
%TD*%
D14*
%TO.C,U1*%
X25400000Y-152908000D03*
X24130000Y-152908000D03*
D15*
X22860000Y-152908000D03*
%TD*%
D14*
%TO.C,U2*%
X31496000Y-152908000D03*
X30226000Y-152908000D03*
D15*
X28956000Y-152908000D03*
%TD*%
D12*
%TO.C,J2*%
X24053800Y-181965600D03*
D13*
X24053800Y-179425600D03*
%TD*%
D16*
%TO.C,RV1*%
X18288000Y-168148000D03*
X20828000Y-168148000D03*
X23368000Y-168148000D03*
%TD*%
%TO.C,RV2*%
X23368000Y-174244000D03*
X20828000Y-174244000D03*
X18288000Y-174244000D03*
%TD*%
D17*
%TO.C,Y1*%
X45028000Y-174404000D03*
X40148000Y-174404000D03*
%TD*%
D12*
%TO.C,J1*%
X30454600Y-172161200D03*
D13*
X30454600Y-174701200D03*
X30454600Y-177241200D03*
X30454600Y-179781200D03*
%TD*%
D12*
%TO.C,J3*%
X55219600Y-152908000D03*
D13*
X57759600Y-152908000D03*
X60299600Y-152908000D03*
%TD*%
M02*
