M48
; DRILL file {KiCad (5.1.8)-1} date 01/04/21 13:49:59
; FORMAT={-:-/ absolute / inch / decimal}
; #@! TF.CreationDate,2021-01-04T13:49:59+01:00
; #@! TF.GenerationSoftware,Kicad,Pcbnew,(5.1.8)-1
; #@! TF.FileFunction,Plated,1,2,PTH
FMAT,2
INCH
T1C0.0157
T2C0.0256
T3C0.0315
T4C0.0394
T5C0.0984
%
G90
G05
T1
X0.95Y-6.966
X0.951Y-6.25
X1.055Y-6.337
X1.19Y-6.245
X1.219Y-6.635
X1.2402Y-6.4398
X1.425Y-6.064
X1.43Y-6.742
X1.444Y-6.273
X1.677Y-7.133
X1.6817Y-6.3376
X1.7037Y-6.4773
X1.737Y-6.493
X1.76Y-6.307
X1.786Y-6.426
X1.818Y-6.386
X1.912Y-6.212
X1.974Y-6.794
X2.084Y-6.909
X2.089Y-6.389
X2.543Y-6.281
T2
X1.14Y-6.02
X1.19Y-6.02
X1.24Y-6.02
X0.9Y-6.02
X0.95Y-6.02
X1.0Y-6.02
T3
X0.72Y-6.86
X0.82Y-6.86
X0.92Y-6.86
X0.72Y-6.62
X0.82Y-6.62
X0.92Y-6.62
X1.5806Y-6.8663
X1.7728Y-6.8663
T4
X2.7677Y-6.5748
X2.7677Y-6.6748
X2.7677Y-6.7748
X2.7677Y-6.8748
X2.7677Y-6.9748
X1.199Y-6.778
X1.199Y-6.878
X1.199Y-6.978
X1.199Y-7.078
X2.1Y-7.2
X2.2Y-7.2
X2.3Y-7.2
X2.4Y-7.2
X2.5Y-7.2
X0.947Y-7.064
X0.947Y-7.164
X2.174Y-6.02
X2.274Y-6.02
X2.374Y-6.02
T5
X2.76Y-6.04
X2.76Y-7.2
X0.7Y-7.2
X0.7Y-6.04
T0
M30
